<?xml version="1.0" standalone="no"?>
<!DOCTYPE svg PUBLIC "-//W3C//DTD SVG 20010904//EN"
 "http://www.w3.org/TR/2001/REC-SVG-20010904/DTD/svg10.dtd">
<svg version="1.0" xmlns="http://www.w3.org/2000/svg"
 width="565.000000pt" height="565.000000pt" viewBox="0 0 565.000000 565.000000"
 preserveAspectRatio="xMidYMid meet">
<metadata>
Created by potrace 1.14, written by Peter Selinger 2001-2017
</metadata>
<g transform="translate(0.000000,565.000000) scale(0.100000,-0.100000)"
fill="#000000" stroke="none">
<path d="M2590 5067 c-3 -2 -43 -7 -90 -11 -499 -39 -1047 -221 -1455 -485
-334 -216 -635 -524 -792 -811 -121 -222 -172 -357 -220 -580 -25 -115 -27
-143 -27 -345 0 -165 5 -243 17 -312 43 -230 122 -439 247 -653 35 -61 144
-219 159 -230 3 -3 24 -27 46 -55 22 -27 81 -91 130 -140 464 -465 1104 -755
1855 -839 125 -14 636 -15 725 -2 22 4 78 11 125 17 124 16 352 64 488 104
713 207 1295 638 1607 1190 30 53 55 98 55 100 0 2 15 36 34 77 161 350 199
796 101 1184 -155 610 -638 1153 -1313 1475 -315 150 -615 237 -1022 296 -97
13 -658 31 -670 20z"/>
</g>
</svg>
